ply
format ascii 1.0
comment Created by Blender 2.81 (sub 16) - www.blender.org, source file: 'demo_ship.blend'
element vertex 591
property float x
property float y
property float z
property uchar red
property uchar green
property uchar blue
property uchar alpha
element face 866
property list uchar uint vertex_indices
end_header
-0.034198 -0.987346 0.214262 62 104 136 255
-1.599078 -0.987346 2.214262 62 104 136 255
-0.034198 -0.987346 2.214262 62 104 136 255
-0.034198 1.179179 0.214262 62 104 136 255
-1.599078 1.179179 2.214262 62 104 136 255
-2.915423 1.179179 0.214262 62 103 136 255
-2.162565 1.179179 -1.994252 62 104 136 255
-2.162565 -0.987346 -1.994252 62 104 136 255
-0.034198 -0.987346 -1.994252 62 104 136 255
-0.548948 -0.989804 -4.184854 65 84 99 255
-0.548948 -0.382428 -3.450555 43 70 88 255
-0.548948 -0.989804 -3.450555 42 69 87 255
-1.409707 1.179179 -4.202765 62 104 136 255
-0.034198 1.179179 -1.994252 62 104 136 255
-3.182904 0.002344 0.567903 62 104 136 255
-3.458143 -0.097596 0.214262 62 104 136 255
-2.141797 -0.097596 2.214262 62 102 136 255
-1.736878 0.995451 2.123552 62 104 136 255
-2.159019 0.002344 2.123552 62 102 136 255
-1.874316 1.079239 1.860620 62 104 136 255
-3.320343 0.086132 0.304971 62 104 136 255
-2.898202 1.079239 0.304971 62 103 136 255
-2.668932 0.069304 -1.892777 62 100 136 255
-2.705285 -0.097596 -1.994252 62 104 136 255
-2.835363 1.080514 -0.143627 62 104 136 255
-2.239096 1.080514 -1.892777 62 104 136 255
-2.951776 1.012279 0.112787 62 103 136 255
-2.785346 0.001069 -1.636364 62 102 136 255
-3.381612 0.001069 0.112787 62 104 136 255
-2.038311 0.008245 -3.818848 62 100 136 255
-1.952427 -0.097596 -4.202765 62 104 136 255
-2.201562 1.000141 -2.103106 62 104 136 255
-2.623188 0.008245 -2.103106 62 104 136 255
-2.076682 1.073339 -2.378169 62 104 136 255
-1.913431 0.081442 -4.093910 62 97 136 255
-1.491804 1.073339 -4.093911 62 104 136 255
-0.034198 -0.987346 -4.202765 62 104 136 255
-1.234605 -0.941977 -4.288428 62 104 136 255
-1.409707 -0.987346 -4.202765 62 104 136 255
-0.034198 -0.418238 -5.277338 43 70 89 255
-0.594362 -0.463606 -5.191675 62 104 136 255
-0.034198 -0.463606 -5.191675 47 77 99 255
-0.648025 -0.418238 -5.277338 62 104 136 255
-1.412448 0.980224 -4.263799 62 104 136 255
-0.812232 -0.278562 -5.110576 62 104 136 255
-1.840119 -0.025891 -4.263799 62 103 136 255
-0.034198 1.179179 -4.202765 62 104 136 255
-1.267111 1.098749 -4.256870 93 120 149 255
-0.034198 1.098749 -4.256870 62 85 136 255
-0.582130 -0.337808 -5.223233 62 104 136 255
-1.803499 -0.218704 -4.275502 43 71 90 255
-0.854678 -0.451939 -5.057146 62 104 136 255
-1.408725 -0.865908 -4.275502 62 104 136 255
-2.664555 -0.212962 -1.907304 62 104 136 255
-2.240041 -0.908923 -1.907304 62 104 136 255
-2.828925 -0.908922 -0.179809 62 103 136 255
-2.915423 -0.987346 0.214262 62 104 136 255
-3.325728 -0.229496 0.293207 62 104 136 255
-2.912679 -0.906660 0.293207 62 103 136 255
-1.910844 -0.906660 1.815353 62 104 136 255
-1.911697 -0.212962 -4.115818 44 73 93 255
-1.487182 -0.908923 -4.115818 62 104 136 255
-2.076067 -0.908923 -2.388321 62 104 136 255
-2.791784 -0.176019 -1.600182 62 104 136 255
-2.956153 -0.871980 0.127314 62 100 136 255
-3.380668 -0.176019 0.127314 62 104 136 255
-2.038926 -0.176019 -3.808695 43 71 89 255
-2.203295 -0.871980 -2.081199 62 104 136 255
-2.627810 -0.176019 -2.081200 62 104 136 255
-3.146378 -0.178281 0.613169 62 103 136 255
-1.731492 -0.855446 2.135316 62 104 136 255
-2.144542 -0.178281 2.135316 62 101 136 255
-1.040847 -0.989804 -3.476995 42 69 87 255
-0.903667 -0.203669 2.211837 62 104 135 255
-0.580303 0.818422 2.095028 35 51 64 255
-0.580303 0.818422 2.211837 62 104 134 255
-0.034198 0.081579 2.152050 164 172 181 255
-0.034198 0.012033 2.081218 108 114 120 255
-0.121106 0.012033 2.081218 79 82 87 255
-0.034198 0.818422 2.095028 40 63 80 255
-0.034198 0.818422 2.211837 47 76 98 255
-0.034198 0.953759 2.216083 25 27 28 255
-0.677346 0.953759 2.090783 25 27 28 255
-0.677346 0.953759 2.216083 25 27 28 255
-0.615001 -0.839507 2.095028 25 27 28 255
-1.048282 -0.218702 2.090783 25 27 28 255
-0.903667 -0.203669 2.095028 25 27 28 255
-0.034198 -0.967670 2.090783 25 27 28 255
-0.708257 -0.967670 2.090783 25 27 28 255
-0.034198 0.953759 2.090783 25 27 28 255
-1.048282 -0.218702 2.216083 35 51 63 255
-0.708257 -0.967670 2.216083 26 28 31 255
-0.615001 -0.839507 2.211837 62 104 136 255
-0.034198 -0.967670 2.216083 56 93 120 255
-0.183460 -0.082006 2.152050 72 93 113 255
-0.131706 0.081579 2.152050 62 104 136 255
-0.034198 -0.839507 2.211837 62 104 135 255
-1.040847 -0.382428 -3.476995 47 71 89 255
-0.548948 -0.159583 -4.184854 63 83 98 255
-1.420053 -0.159583 -4.158413 48 72 90 255
-1.408061 -0.382428 -2.457306 42 69 87 255
-1.897248 -0.989804 -2.718844 51 74 91 255
-1.408061 -0.989804 -2.457306 42 69 87 255
-1.897248 -0.159583 -2.718844 43 69 87 255
-0.855350 -0.217457 -3.859921 31 118 129 255
-0.594397 -0.132128 -4.141089 32 118 129 255
-0.927950 -0.132128 -4.130965 32 118 129 255
-1.207201 -0.217457 -3.858373 192 214 94 255
-1.018849 -0.132128 -4.129417 165 185 92 255
-1.352402 -0.132128 -4.119293 194 215 103 255
-1.028699 -0.328880 -3.516116 151 157 165 255
-0.912947 -0.243551 -3.777036 161 167 172 255
-1.173900 -0.243551 -3.777036 198 203 204 255
-0.771649 -0.328880 -3.504444 109 214 146 255
-0.583296 -0.243551 -3.775488 109 214 146 255
-0.844249 -0.243551 -3.775488 112 211 147 255
-1.090876 -0.334503 -3.448342 109 214 146 255
-1.387968 -0.251892 -3.245114 108 192 168 255
-1.227006 -0.334503 -3.070332 128 218 159 255
-1.284034 -0.223081 -3.775480 124 120 134 255
-1.601511 -0.140469 -3.494425 125 121 135 255
-1.440550 -0.223081 -3.319643 105 118 214 255
-1.608576 -0.344273 -2.682093 51 48 66 255
-1.579316 -0.122300 -2.778831 55 52 70 255
-1.704354 -0.251781 -2.778831 51 48 66 255
-1.667770 -0.287110 -2.935355 51 48 66 255
-1.542732 -0.157629 -2.935355 60 58 73 255
-1.549381 -0.401437 -2.935355 56 54 70 255
-1.430486 -0.173938 -2.750619 194 81 90 255
-1.383037 -0.219759 -2.798543 200 84 94 255
-1.401161 -0.202257 -2.876086 201 84 94 255
-1.424343 -0.271955 -2.935355 51 48 66 255
-1.512797 -0.436766 -2.778831 51 48 66 255
-1.483537 -0.214792 -2.682093 51 48 66 255
-1.477935 -0.128117 -2.798543 196 82 91 255
-1.459811 -0.145619 -2.876086 201 84 94 255
-1.387758 -0.307284 -2.778831 54 51 68 255
-0.147134 -0.070239 2.081218 79 82 87 255
-0.123899 -0.121419 2.081218 79 82 87 255
-0.034198 -0.183772 2.152050 62 104 136 255
-0.137260 -0.183772 2.152050 163 171 180 255
-0.034198 -0.121419 2.081218 79 82 87 255
-0.328520 0.196443 2.143117 164 172 181 255
-0.613036 0.827180 2.143117 164 172 181 255
-0.323617 0.827180 2.143117 199 200 201 255
-0.034198 0.827180 2.143117 162 169 178 255
-0.034198 0.065683 2.143117 236 239 239 255
-0.282754 -0.292093 2.143117 164 172 181 255
-0.034198 -0.300265 2.143117 164 172 181 255
-0.454489 -0.012593 2.143117 164 172 181 255
-0.832059 0.065683 2.216166 127 127 127 255
-0.832059 0.065683 2.143117 25 27 28 255
-0.282754 -0.292093 2.216166 164 172 181 255
-0.454489 -0.012593 2.216166 164 172 181 255
-2.284286 -0.176019 -3.808695 43 71 89 255
-1.732543 -0.908923 -4.115818 62 104 136 255
-2.321428 -0.908923 -2.388321 62 104 136 255
-2.485401 -0.908923 -1.907304 62 104 136 255
-2.157058 -0.212962 -4.115818 44 73 93 255
-3.074286 -0.908922 -0.179809 62 103 136 255
-2.283671 0.008245 -3.818848 62 100 136 255
-2.484457 1.080514 -1.892777 62 104 136 255
-2.914293 0.069304 -1.892777 62 100 136 255
-2.909916 -0.212962 -1.907304 62 104 136 255
-1.982238 0.995451 2.123552 62 104 136 255
-3.428265 0.002344 0.567903 62 104 136 255
-2.868549 0.008245 -2.103106 62 104 136 255
-3.080723 1.080514 -0.143627 62 104 136 255
-2.404379 0.002344 2.123552 62 102 136 255
-1.976853 -0.855446 2.135316 62 104 136 255
-2.446923 1.000141 -2.103106 62 104 136 255
-2.389902 -0.178281 2.135316 62 101 136 255
-3.037144 -0.176019 -1.600182 62 104 136 255
-3.201514 -0.871980 0.127314 62 100 136 255
-3.391738 -0.178281 0.613169 62 103 136 255
-3.626029 -0.176019 0.127314 62 104 136 255
-3.158040 -0.906660 0.293207 62 103 136 255
-2.156204 -0.906660 1.815353 62 104 136 255
-2.158791 0.081442 -4.093910 62 97 136 255
-2.322043 1.073339 -2.378169 62 104 136 255
-3.197137 1.012279 0.112787 62 103 136 255
-3.571089 -0.229496 0.293207 62 104 136 255
-2.119677 1.079239 1.860620 62 104 136 255
-1.737165 1.073339 -4.093911 62 104 136 255
-3.030706 0.001069 -1.636364 62 102 136 255
-3.143563 1.079239 0.304971 62 103 136 255
-3.626973 0.001069 0.112787 62 104 136 255
-3.565703 0.086132 0.304971 62 104 136 255
-2.448656 -0.871980 -2.081199 62 104 136 255
-2.873171 -0.176019 -2.081200 62 104 136 255
-1.267111 1.098749 -4.409204 93 120 149 255
-0.034198 -0.463606 -5.344009 47 77 99 255
-0.034198 -0.941977 -4.288428 62 104 136 255
-1.234605 -0.941977 -4.440763 62 104 136 255
-0.034198 -0.337808 -5.223233 42 69 87 255
-0.582130 -0.337808 -5.375567 62 104 136 255
-0.034198 1.098749 -4.409204 62 85 136 255
-0.594362 -0.463606 -5.344009 62 104 136 255
-1.478982 0.971369 -4.361627 62 104 136 255
-1.870033 -0.227559 -4.373331 43 71 90 255
-0.921212 -0.460794 -5.154974 62 104 136 255
-0.878766 -0.287417 -5.208405 62 104 136 255
-1.475259 -0.874763 -4.373331 62 104 136 255
-1.906652 -0.034746 -4.361627 62 103 136 255
1.530681 -0.987346 2.214262 62 104 136 255
2.847027 -0.987346 0.214262 62 104 136 255
1.530681 1.179179 2.214262 62 104 136 255
2.847027 1.179179 0.214262 62 103 136 255
2.094169 1.179179 -1.994252 62 104 136 255
2.094169 -0.987346 -1.994252 62 104 136 255
0.480551 -0.989804 -4.184854 65 84 99 255
0.480551 -0.382428 -3.450555 43 70 88 255
0.480551 -0.159583 -4.184854 63 83 98 255
1.341311 1.179179 -4.202765 62 104 136 255
3.114508 0.002344 0.567903 62 104 136 255
3.389747 -0.097596 0.214262 62 104 136 255
1.668482 0.995451 2.123552 62 104 136 255
2.073401 -0.097596 2.214262 62 102 136 255
1.805920 1.079239 1.860620 62 104 136 255
3.251947 0.086132 0.304971 62 104 136 255
2.600536 0.069304 -1.892777 62 100 136 255
2.636889 -0.097596 -1.994252 62 104 136 255
2.766967 1.080514 -0.143627 62 104 136 255
2.883380 1.012279 0.112787 62 103 136 255
2.716950 0.001069 -1.636364 62 102 136 255
1.969914 0.008245 -3.818848 62 100 136 255
1.884031 -0.097596 -4.202765 62 104 136 255
2.133166 1.000141 -2.103106 62 104 136 255
2.008286 1.073339 -2.378169 62 104 136 255
1.845034 0.081442 -4.093910 62 97 136 255
1.166209 -0.941977 -4.288428 62 104 136 255
1.341311 -0.987346 -4.202765 62 104 136 255
0.525966 -0.463606 -5.191675 62 104 136 255
0.579628 -0.418238 -5.277338 62 104 136 255
1.344052 0.980224 -4.263799 62 104 136 255
0.743836 -0.278562 -5.110576 62 104 136 255
1.198714 1.098749 -4.256870 93 120 149 255
0.513734 -0.337808 -5.223233 62 104 136 255
1.735103 -0.218704 -4.275502 43 71 90 255
0.786282 -0.451939 -5.057146 62 104 136 255
2.596159 -0.212962 -1.907304 62 104 136 255
2.760529 -0.908922 -0.179809 62 103 136 255
3.257332 -0.229496 0.293207 62 104 136 255
1.842448 -0.906660 1.815353 62 104 136 255
1.843301 -0.212962 -4.115818 44 73 93 255
2.007671 -0.908923 -2.388321 62 104 136 255
2.723387 -0.176019 -1.600182 62 104 136 255
2.887757 -0.871980 0.127314 62 100 136 255
1.970530 -0.176019 -3.808695 43 71 89 255
2.134899 -0.871980 -2.081199 62 104 136 255
3.077981 -0.178281 0.613169 62 103 136 255
1.663096 -0.855446 2.135316 62 104 136 255
0.972450 -0.989804 -3.476995 42 69 87 255
0.480551 -0.989804 -3.450555 42 69 87 255
0.511907 0.818422 2.095028 35 51 64 255
0.835271 -0.203669 2.211837 62 104 135 255
0.511907 0.818422 2.211837 62 104 134 255
0.063310 0.081579 2.152050 62 104 136 255
0.052710 0.012033 2.081218 79 82 87 255
0.608949 0.953759 2.090783 25 27 28 255
0.608949 0.953759 2.216083 25 27 28 255
0.979886 -0.218702 2.090783 25 27 28 255
0.546605 -0.839507 2.095028 25 27 28 255
0.835271 -0.203669 2.095028 25 27 28 255
-0.034198 -0.839507 2.095028 25 27 28 255
0.639861 -0.967670 2.090783 25 27 28 255
0.979886 -0.218702 2.216083 35 51 63 255
0.639861 -0.967670 2.216083 26 28 31 255
0.546605 -0.839507 2.211837 62 104 136 255
0.115064 -0.082006 2.152050 72 93 113 255
0.972450 -0.382428 -3.476995 47 71 89 255
1.828852 -0.989804 -2.718844 51 74 91 255
1.339665 -0.382428 -2.457306 42 69 87 255
1.339665 -0.989804 -2.457306 42 69 87 255
1.828852 -0.159583 -2.718844 43 69 87 255
1.351656 -0.159583 -4.158413 48 72 90 255
0.786954 -0.217457 -3.859921 31 118 129 255
0.526001 -0.132128 -4.141089 32 118 129 255
0.526001 -0.217457 -3.859921 34 112 123 255
1.138805 -0.217457 -3.858373 192 214 94 255
0.950453 -0.132128 -4.129417 165 185 92 255
0.877852 -0.217457 -3.858373 188 211 97 255
0.960303 -0.328880 -3.516116 151 157 165 255
0.844551 -0.243551 -3.777036 161 167 172 255
0.771950 -0.328880 -3.505991 48 73 90 255
0.703253 -0.328880 -3.504444 109 214 146 255
0.514900 -0.243551 -3.775488 109 214 146 255
0.514900 -0.328880 -3.494319 86 167 123 255
1.022480 -0.334503 -3.448342 109 214 146 255
1.319572 -0.251892 -3.245114 108 192 168 255
1.163056 -0.251892 -3.700952 111 214 147 255
1.215638 -0.223081 -3.775480 124 120 134 255
1.533115 -0.140469 -3.494425 125 121 135 255
1.356214 -0.140469 -4.028089 214 102 111 255
1.635958 -0.251781 -2.778831 51 48 66 255
1.415141 -0.214792 -2.682093 51 48 66 255
1.540180 -0.344273 -2.682093 51 48 66 255
1.599374 -0.287110 -2.935355 51 48 66 255
1.510920 -0.122300 -2.778831 55 52 70 255
1.480985 -0.401437 -2.935355 56 54 70 255
1.474335 -0.157629 -2.935355 60 58 73 255
1.391415 -0.145619 -2.876086 201 84 94 255
1.332765 -0.202257 -2.876086 201 84 94 255
1.314641 -0.219759 -2.798543 200 84 94 255
1.444401 -0.436766 -2.778831 51 48 66 255
1.355947 -0.271955 -2.935355 51 48 66 255
1.319362 -0.307284 -2.778831 54 51 68 255
1.409539 -0.128117 -2.798543 196 82 91 255
1.362090 -0.173938 -2.750619 194 81 90 255
-0.034198 1.179179 2.214262 62 104 136 255
0.068863 -0.183772 2.152050 163 171 180 255
0.055503 -0.121419 2.081218 79 82 87 255
0.078738 -0.070239 2.081218 79 82 87 255
0.260124 0.196443 2.143117 164 172 181 255
0.544640 0.827180 2.143117 164 172 181 255
0.763663 0.065683 2.143117 25 27 28 255
0.214358 -0.292093 2.143117 164 172 181 255
0.386093 -0.012593 2.143117 164 172 181 255
0.763663 0.065683 2.216166 127 127 127 255
0.214358 -0.292093 2.216166 164 172 181 255
0.386093 -0.012593 2.216166 164 172 181 255
2.215890 -0.176019 -3.808695 43 71 89 255
2.559414 -0.176019 -2.081200 62 104 136 255
1.664147 -0.908923 -4.115818 62 104 136 255
1.418786 -0.908923 -4.115818 62 104 136 255
2.417005 -0.908923 -1.907304 62 104 136 255
2.171644 -0.908923 -1.907304 62 104 136 255
2.088662 -0.212962 -4.115818 44 73 93 255
2.215275 0.008245 -3.818848 62 100 136 255
2.416061 1.080514 -1.892777 62 104 136 255
2.170700 1.080514 -1.892777 62 104 136 255
2.841520 -0.212962 -1.907304 62 104 136 255
1.913842 0.995451 2.123552 62 104 136 255
2.554792 0.008245 -2.103106 62 104 136 255
2.845897 0.069304 -1.892777 62 100 136 255
2.335983 0.002344 2.123552 62 102 136 255
2.090622 0.002344 2.123552 62 102 136 255
1.908457 -0.855446 2.135316 62 104 136 255
2.378526 1.000141 -2.103106 62 104 136 255
2.076146 -0.178281 2.135316 62 101 136 255
2.968748 -0.176019 -1.600182 62 104 136 255
2.321506 -0.178281 2.135316 62 101 136 255
3.312272 -0.176019 0.127314 62 104 136 255
3.133118 -0.871980 0.127314 62 100 136 255
3.089643 -0.906660 0.293207 62 103 136 255
2.844283 -0.906660 0.293207 62 103 136 255
2.087808 -0.906660 1.815353 62 104 136 255
2.090395 0.081442 -4.093910 62 97 136 255
3.128741 1.012279 0.112787 62 103 136 255
3.313216 0.001069 0.112787 62 104 136 255
2.051281 1.079239 1.860620 62 104 136 255
1.668769 1.073339 -4.093911 62 104 136 255
1.423408 1.073339 -4.093911 62 104 136 255
2.962310 0.001069 -1.636364 62 102 136 255
2.829806 1.079239 0.304971 62 103 136 255
3.075167 1.079239 0.304971 62 103 136 255
2.380260 -0.871980 -2.081199 62 104 136 255
1.198714 1.098749 -4.409204 93 120 149 255
1.166209 -0.941977 -4.440763 62 104 136 255
0.513734 -0.337808 -5.375567 62 104 136 255
1.410586 0.971369 -4.361627 62 104 136 255
1.771722 -0.025891 -4.263799 62 103 136 255
1.801637 -0.227559 -4.373331 43 71 90 255
1.406863 -0.874763 -4.373331 62 104 136 255
1.340329 -0.865908 -4.275502 62 104 136 255
1.838256 -0.034746 -4.361627 62 103 136 255
-1.665477 0.325790 2.179741 127 157 204 255
-1.300188 -0.039499 2.179741 127 157 204 255
-1.665477 -0.039499 2.179741 7 12 20 255
-1.400841 0.085205 2.138795 105 105 106 255
-1.400841 0.265083 2.068806 8 13 21 255
-1.400841 0.085205 2.068806 7 12 20 255
-1.633989 0.085205 2.138795 43 44 46 255
-1.633989 0.008549 2.068806 152 152 153 255
-1.633989 0.008549 2.138795 48 49 52 255
-1.326785 0.008549 2.068806 21 23 28 255
-1.326785 0.008549 2.138795 63 64 66 255
-1.633989 0.085205 2.068806 11 15 22 255
-1.327665 0.264988 2.138795 21 24 29 255
-1.326366 0.264988 2.068806 64 65 67 255
-1.400841 0.265083 2.138795 101 101 103 255
-1.300188 0.325790 2.179741 127 157 204 255
-1.250405 -0.089282 2.140638 127 157 204 255
-1.715260 0.375572 2.140638 127 157 204 255
-1.715260 -0.089282 2.140638 129 158 204 255
-1.250405 0.375572 2.140638 142 167 210 255
1.529836 0.561327 2.028426 63 109 181 255
1.529836 -0.184344 2.216067 63 109 181 255
1.529836 -0.184344 2.028426 67 111 182 255
1.158163 0.561327 2.216067 63 109 181 255
1.158163 -0.184344 2.028426 108 136 192 255
1.158163 -0.184344 2.216067 65 110 181 255
1.184724 -0.157783 2.028426 63 109 181 255
1.503275 -0.157783 2.157846 62 107 176 255
1.503275 -0.157783 2.028426 63 109 181 255
1.529836 0.561327 2.216067 83 120 185 255
1.158163 0.561327 2.028426 64 109 181 255
1.503275 0.534766 2.028426 63 109 181 255
1.184724 0.534766 2.028426 63 109 181 255
1.184724 0.534766 2.157846 63 109 181 255
1.184724 -0.157783 2.157846 63 109 181 255
1.503275 0.534766 2.157846 63 109 181 255
1.256748 0.527289 2.075473 56 57 59 255
1.218980 0.495213 2.166651 37 38 43 255
1.218980 0.527289 2.166651 89 91 97 255
1.476871 -0.120092 2.170087 218 218 219 255
1.439104 -0.152169 2.078909 42 43 45 255
1.439104 -0.120092 2.078909 13 16 22 255
1.281959 0.480573 2.210149 255 255 255 255
1.254635 -0.108945 2.144183 112 187 127 255
1.281959 -0.108945 2.210149 255 255 255 255
1.476871 0.527289 2.166651 88 111 157 255
1.439104 0.495213 2.075473 7 12 20 255
1.439104 0.527289 2.075473 7 12 20 255
1.254635 0.480573 2.144183 63 109 181 255
1.281959 -0.108945 2.078217 85 181 105 255
1.256748 -0.120092 2.078909 7 12 20 255
1.218980 -0.152169 2.170087 186 198 222 255
1.218980 -0.120092 2.170087 150 151 153 255
1.281959 0.480573 2.078217 87 182 107 255
1.347926 -0.108945 2.050892 85 181 105 255
1.347926 -0.120092 2.041142 9 13 21 255
1.256748 -0.152169 2.078909 104 104 105 255
1.347926 0.480573 2.050892 85 181 105 255
1.413892 -0.108945 2.078217 88 182 108 255
1.347926 -0.152169 2.041142 7 12 20 255
1.413892 0.480573 2.078217 85 181 105 255
1.441216 -0.108945 2.144183 86 181 106 255
1.441216 0.480573 2.144183 86 181 105 255
1.413892 -0.108945 2.210149 192 201 224 255
1.347926 0.527289 2.037706 8 13 21 255
1.256748 0.495213 2.075473 41 42 45 255
1.347926 0.495213 2.037706 70 70 72 255
-0.034198 -0.765249 0.042429 60 71 112 255
-0.741305 -0.976394 0.338999 51 54 65 255
-0.034198 -0.976394 0.631892 28 33 49 255
-0.444735 -0.765249 -0.368108 59 70 112 255
-0.741305 -0.976394 -1.075215 25 30 48 255
-1.034198 -0.976394 -0.368108 25 30 48 255
-0.324492 -0.765249 -0.658402 67 76 116 255
-0.034198 -0.976394 -1.368108 26 31 49 255
-0.444735 -0.596405 -0.368108 54 64 102 255
-0.034198 -0.596405 0.042429 54 64 102 255
-0.324492 -0.765249 -0.077814 59 70 112 255
-0.324492 -0.596405 -0.658402 54 64 102 255
-0.034198 -0.765249 -0.778645 59 70 112 255
-0.324492 -0.596405 -0.077814 54 64 102 255
-0.856302 -0.154541 -0.368108 76 91 145 255
-0.034198 -0.154541 0.453996 77 92 145 255
-0.034198 -0.154541 -1.190212 76 91 145 255
-0.034198 -0.596405 -0.778645 54 64 102 255
-0.615514 -0.154541 0.213207 78 93 146 255
-0.340273 1.187676 -0.368108 115 129 194 255
-0.250626 0.030461 -0.584536 99 118 189 255
-0.340273 0.030461 -0.368108 99 118 189 255
-0.034198 1.187676 -0.062033 104 122 190 255
-0.250626 0.030461 -0.151680 100 118 188 255
-0.034198 0.030461 -0.062033 99 118 189 255
-0.250626 1.187676 -0.584536 114 130 193 255
-0.034198 0.030461 -0.674183 104 123 191 255
-0.250626 1.187676 -0.151680 105 122 190 255
0.256096 -0.765249 -0.077814 60 71 113 255
0.672909 -0.976394 -1.075215 25 30 48 255
0.376339 -0.765249 -0.368108 60 70 112 255
0.965802 -0.976394 -0.368108 54 64 102 255
0.672909 -0.976394 0.338999 25 30 48 255
0.256096 -0.765249 -0.658402 59 70 112 255
0.376339 -0.596405 -0.368108 54 64 102 255
0.256096 -0.596405 -0.658402 54 64 102 255
0.256096 -0.596405 -0.077814 54 64 102 255
0.787906 -0.154541 -0.368108 76 91 145 255
0.547118 -0.154541 -0.949423 128 136 170 255
0.547118 -0.154541 0.213207 76 91 145 255
0.182230 0.030461 -0.584536 99 118 189 255
0.271877 1.187676 -0.368108 99 118 189 255
0.271877 0.030461 -0.368108 119 135 195 255
0.182230 0.030461 -0.151680 99 118 189 255
0.182230 1.187676 -0.584536 104 123 191 255
0.182230 1.187676 -0.151680 100 119 189 255
-0.615514 -0.154541 -0.949423 76 91 145 255
-0.385333 0.059103 -0.442627 103 189 141 255
-0.592692 -0.071458 -0.821216 104 190 142 255
-0.749508 -0.071458 -0.442627 104 189 141 255
-0.108717 0.059103 -0.016973 103 189 141 255
-0.487306 -0.071458 0.190386 106 190 143 255
-0.108717 -0.071458 0.347202 108 190 144 255
-0.229795 0.059103 -0.669091 222 137 203 255
-0.108717 -0.071458 -1.083418 223 139 204 255
-0.487306 -0.071458 -0.926602 216 124 194 255
-0.335181 0.059103 -0.172511 221 105 113 255
-0.749508 -0.071458 -0.293589 223 105 113 255
-0.592692 -0.071458 0.084999 223 105 113 255
0.681112 -0.071458 -0.442627 104 189 142 255
0.266785 0.059103 -0.563705 104 189 142 255
0.316937 0.059103 -0.442627 133 199 160 255
0.418910 -0.071458 0.190386 115 180 225 255
0.040321 0.059103 -0.016973 119 182 225 255
0.040321 -0.071458 0.347202 141 192 229 255
0.040321 -0.071458 -1.083418 224 205 140 255
0.161399 0.059103 -0.669091 224 205 140 255
0.418910 -0.071458 -0.926602 224 205 140 255
0.681112 -0.071458 -0.293589 224 205 141 255
0.266785 0.059103 -0.172511 224 205 141 255
0.524296 -0.071458 0.084999 228 212 158 255
-0.428747 -0.878221 -2.629069 48 32 18 255
-0.428747 -0.987346 -3.326605 48 32 18 255
-0.428747 -0.987346 -2.629069 48 32 18 255
0.360351 -0.878221 -3.326605 53 35 20 255
0.360351 -0.987346 -2.629069 48 32 18 255
0.360351 -0.987346 -3.326605 55 37 22 255
-0.428747 -0.878221 -3.326605 50 33 19 255
-0.223249 -0.665997 -3.125117 48 32 18 255
0.154853 -0.665997 -3.125117 56 38 21 255
0.360351 -0.878221 -2.629069 48 32 18 255
-0.688016 -0.529420 -2.605420 106 69 41 255
-0.223249 -0.665997 -2.747016 48 32 18 255
0.619620 -0.529420 -2.605420 105 68 39 255
0.154852 -0.665997 -2.747016 105 68 39 255
-0.252137 -0.600493 -2.506432 76 49 28 255
-0.097215 -0.665997 -2.747016 60 40 23 255
0.101100 -0.600493 -3.469518 48 32 18 255
0.028819 -0.665997 -3.125117 58 38 22 255
-0.670031 -0.487320 -2.684147 105 68 39 255
-0.440093 -0.487320 -3.469518 48 32 18 255
-0.440093 -0.529420 -3.469518 48 32 18 255
0.603452 -0.487320 -2.676193 105 68 39 255
0.619620 -0.487320 -2.605420 105 68 39 255
-0.252137 -0.558393 -2.506432 73 47 27 255
0.101100 -0.558393 -3.469518 48 32 18 255
0.371697 -0.529420 -3.469518 49 32 18 255
-0.247268 -0.558393 -2.583316 105 68 39 255
-0.169496 -0.558393 -3.469518 48 32 18 255
0.371697 -0.487320 -3.469518 51 34 19 255
0.179075 -0.558393 -2.580654 107 70 42 255
-0.169496 -0.600493 -3.469518 48 32 18 255
0.183741 -0.558393 -2.506432 48 32 18 255
0.183741 -0.600493 -2.506432 48 32 18 255
-0.097215 -0.665997 -3.125117 56 38 21 255
0.028819 -0.665997 -2.747016 105 68 39 255
-0.422113 0.529877 -2.601418 105 68 39 255
-0.688016 -0.487320 -2.605420 105 68 39 255
-0.160513 0.487693 -2.553323 105 68 39 255
0.344420 0.529877 -2.643424 105 68 39 255
-0.163404 0.487693 -2.502429 75 48 29 255
0.092537 0.487693 -2.551743 105 68 39 255
-0.411439 0.529877 -2.648145 105 68 39 255
0.354016 0.529877 -2.601418 105 68 39 255
-0.594397 -0.217457 -3.859921 34 112 123 255
-0.946248 -0.217457 -3.858373 188 211 97 255
-0.840346 -0.328880 -3.505991 48 73 90 255
-0.583296 -0.328880 -3.494319 86 167 123 255
-1.231452 -0.251892 -3.700952 111 214 147 255
-1.424610 -0.140469 -4.028089 214 102 111 255
-0.034198 -0.300265 2.216166 191 196 202 255
-0.034198 -0.941977 -4.440763 62 104 136 255
-0.034198 -0.337808 -5.375567 42 69 87 255
0.859554 -0.132128 -4.130965 32 118 129 255
1.284006 -0.132128 -4.119293 194 215 103 255
1.105504 -0.243551 -3.777036 198 203 204 255
0.775853 -0.243551 -3.775488 112 211 147 255
1.158610 -0.334503 -3.070332 128 218 159 255
1.372154 -0.223081 -3.319643 105 118 214 255
0.255221 0.827180 2.143117 199 200 201 255
2.804775 -0.176019 -2.081200 62 104 136 255
2.253031 -0.908923 -2.388321 62 104 136 255
3.005889 -0.908922 -0.179809 62 103 136 255
3.359869 0.002344 0.567903 62 104 136 255
2.800153 0.008245 -2.103106 62 104 136 255
3.012327 1.080514 -0.143627 62 104 136 255
3.323342 -0.178281 0.613169 62 103 136 255
3.557632 -0.176019 0.127314 62 104 136 255
3.502693 -0.229496 0.293207 62 104 136 255
2.253647 1.073339 -2.378169 62 104 136 255
3.558577 0.001069 0.112787 62 104 136 255
3.497307 0.086132 0.304971 62 104 136 255
0.525966 -0.463606 -5.344009 62 104 136 255
0.852815 -0.460794 -5.154974 62 104 136 255
0.810370 -0.287417 -5.208405 62 104 136 255
1.476871 -0.152169 2.170087 85 94 117 255
1.476871 0.495213 2.166651 32 39 53 255
1.413892 0.480573 2.210149 255 255 255 255
-0.034198 1.187676 -0.674183 105 123 191 255
-0.335181 0.059103 -0.563705 103 189 141 255
-0.229795 0.059103 -0.067125 103 189 141 255
-0.108717 0.059103 -0.719243 224 140 205 255
-0.385333 0.059103 -0.293589 218 103 110 255
0.524296 -0.071458 -0.821216 103 189 141 255
0.161399 0.059103 -0.067125 126 185 227 255
0.040321 0.059103 -0.719243 226 208 149 255
0.316937 0.059103 -0.293589 224 205 140 255
0.095306 0.487693 -2.502429 73 47 28 255
3 0 1 2
3 3 4 5
3 6 3 5
3 7 0 8
3 9 10 11
3 12 13 6
3 4 14 15
3 16 17 4
3 16 14 18
3 15 19 4
3 5 20 15
3 5 19 21
3 6 22 23
3 6 24 25
3 23 24 5
3 15 26 5
3 15 27 28
3 5 27 23
3 6 29 30
3 23 31 6
3 23 29 32
3 30 33 6
3 12 34 30
3 12 33 35
3 36 37 38
3 39 40 41
3 42 37 40
3 30 43 12
3 30 44 45
3 12 44 42
3 46 47 48
3 42 47 12
3 39 49 42
3 38 50 30
3 38 51 52
3 30 51 42
3 7 53 54
3 23 55 53
3 7 55 56
3 56 57 58
3 15 59 57
3 56 59 1
3 38 60 61
3 30 62 60
3 38 62 7
3 56 63 64
3 15 63 23
3 15 64 65
3 7 66 67
3 23 66 30
3 23 67 68
3 1 69 70
3 16 69 15
3 16 70 71
3 10 72 11
3 73 74 75
3 76 77 78
3 75 79 80
3 81 82 83
3 84 85 86
3 84 87 88
3 74 89 79
3 74 85 82
3 90 88 91
3 92 86 73
3 83 85 90
3 91 87 93
3 94 95 78
3 96 84 92
3 38 8 36
3 97 98 99
3 100 101 102
3 97 103 100
3 97 102 72
3 104 105 106
3 107 108 109
3 110 111 112
3 113 114 115
3 116 117 118
3 119 120 121
3 122 123 124
3 123 125 124
3 126 127 125
3 128 129 130
3 131 132 127
3 132 133 122
3 134 133 128
3 134 126 123
3 135 131 126
3 130 136 131
3 128 136 129
3 4 2 1
3 94 137 138
3 139 140 138
3 77 141 137
3 142 143 144
3 142 145 146
3 147 146 148
3 149 142 147
3 149 150 151
3 148 152 147
3 147 153 149
3 68 154 66
3 62 155 156
3 53 157 54
3 62 158 60
3 55 157 159
3 31 160 29
3 22 161 162
3 55 163 53
3 14 164 165
3 32 160 166
3 24 162 167
3 14 168 18
3 69 169 70
3 32 170 31
3 24 161 25
3 18 164 17
3 71 169 171
3 64 172 173
3 69 171 174
3 65 173 175
3 57 176 58
3 65 172 63
3 58 177 59
3 33 178 179
3 28 180 26
3 57 177 181
3 20 182 19
3 33 183 35
3 26 184 27
3 21 182 185
3 34 183 178
3 28 184 186
3 20 185 187
3 67 154 188
3 68 188 189
3 60 155 61
3 49 190 47
3 40 191 41
3 192 193 37
3 194 195 49
3 47 196 48
3 40 193 197
3 45 198 43
3 51 199 200
3 44 198 201
3 51 202 52
3 44 203 45
3 50 202 199
3 0 204 205
3 206 3 207
3 208 3 13
3 0 209 8
3 210 211 212
3 213 13 46
3 214 206 215
3 216 217 206
3 217 214 215
3 218 215 206
3 219 207 215
3 207 218 206
3 220 208 221
3 208 222 207
3 222 221 207
3 223 215 207
3 215 224 221
3 224 207 221
3 225 208 226
3 227 221 208
3 221 225 226
3 228 226 208
3 229 213 226
3 213 228 208
3 230 36 231
3 39 232 233
3 233 230 231
3 234 226 213
3 226 235 233
3 235 213 233
3 46 236 213
3 236 233 213
3 237 39 233
3 238 231 226
3 231 239 233
3 239 226 233
3 209 240 221
3 221 241 205
3 241 209 205
3 205 242 215
3 215 243 204
3 243 205 204
3 231 244 226
3 226 245 209
3 245 231 209
3 205 246 221
3 246 215 221
3 215 247 205
3 209 248 226
3 248 221 226
3 221 249 209
3 204 250 215
3 250 217 215
3 217 251 204
3 252 211 253
3 254 255 256
3 76 257 258
3 79 256 80
3 259 81 260
3 261 262 263
3 262 87 264
3 89 254 79
3 254 261 263
3 265 266 267
3 263 268 255
3 261 260 266
3 87 267 93
3 258 257 269
3 262 96 268
3 8 231 36
3 270 212 211
3 271 272 273
3 270 274 275
3 273 270 252
3 276 277 278
3 279 280 281
3 282 283 284
3 285 286 287
3 288 289 290
3 291 292 293
3 294 295 296
3 297 298 294
3 299 300 297
3 301 302 303
3 304 305 299
3 304 295 306
3 295 307 308
3 307 300 301
3 301 305 302
3 302 306 303
3 306 308 303
3 204 309 206
3 269 310 311
3 311 310 139
3 141 77 312
3 313 314 315
3 145 313 146
3 146 316 148
3 313 317 316
3 318 317 315
3 319 148 316
3 320 316 317
3 321 322 248
3 245 323 324
3 325 240 326
3 327 245 244
3 241 325 326
3 328 227 225
3 220 329 330
3 331 241 240
3 214 332 216
3 333 328 225
3 222 334 220
3 335 214 336
3 337 250 251
3 338 333 227
3 329 222 330
3 332 336 216
3 339 337 251
3 247 340 246
3 250 341 339
3 342 343 247
3 344 242 345
3 340 342 246
3 346 345 243
3 228 347 229
3 348 349 223
3 242 346 243
3 350 219 218
3 351 228 352
3 353 223 224
3 354 350 218
3 229 351 352
3 349 353 224
3 219 355 354
3 249 321 248
3 322 356 249
3 323 244 324
3 357 237 236
3 191 232 41
3 358 192 230
3 359 194 237
3 196 236 48
3 232 358 230
3 360 361 234
3 239 362 238
3 235 360 234
3 363 239 364
3 365 235 361
3 238 363 364
3 366 367 368
3 369 370 371
3 372 373 374
3 373 371 375
3 374 375 376
3 369 377 372
3 370 378 379
3 376 379 378
3 369 378 380
3 371 379 375
3 381 382 367
3 368 383 366
3 367 384 368
3 366 385 381
3 386 387 388
3 389 390 391
3 392 393 394
3 391 388 387
3 395 396 389
3 397 388 394
3 392 396 398
3 394 390 392
3 398 386 397
3 399 393 400
3 394 401 397
3 397 399 398
3 398 400 392
3 402 403 404
3 405 406 407
3 408 409 410
3 411 412 413
3 414 415 409
3 416 417 418
3 419 420 415
3 421 422 416
3 423 424 420
3 407 425 421
3 426 427 424
3 428 429 427
3 430 431 402
3 413 432 430
3 433 434 435
3 436 437 438
3 434 436 438
3 439 440 437
3 441 439 436
3 442 443 433
3 444 445 439
3 446 436 443
3 447 444 441
3 448 446 442
3 444 449 450
3 451 441 446
3 452 453 454
3 455 456 457
3 458 459 453
3 460 454 456
3 435 461 433
3 462 463 464
3 464 461 465
3 440 466 462
3 466 467 463
3 461 442 433
3 445 468 466
3 463 469 461
3 468 470 467
3 469 448 442
3 468 449 471
3 467 472 469
3 473 474 475
3 476 455 457
3 459 477 473
3 475 478 476
3 454 479 447
3 457 451 448
3 479 459 449
3 456 447 451
3 471 475 470
3 472 457 448
3 449 473 471
3 470 476 472
3 480 481 482
3 483 484 485
3 486 487 488
3 489 490 491
3 492 493 494
3 495 496 497
3 498 499 500
3 501 502 503
3 504 505 506
3 507 508 509
3 510 509 505
3 504 511 510
3 512 513 507
3 514 511 515
3 512 516 517
3 518 515 519
3 520 512 521
3 522 523 524
3 525 526 516
3 527 514 518
3 528 529 520
3 523 530 531
3 532 533 525
3 528 530 533
3 524 531 534
3 531 520 534
3 516 535 536
3 535 518 536
3 511 534 537
3 534 521 537
3 517 536 538
3 536 519 538
3 521 512 507
3 519 515 504
3 513 506 508
3 539 522 540
3 541 533 530
3 533 542 525
3 543 544 541
3 539 541 545
3 544 546 542
3 527 539 540
3 535 543 527
3 545 530 522
3 525 546 526
3 546 535 526
3 0 56 1
3 3 309 4
3 6 13 3
3 7 56 0
3 9 98 10
3 12 46 13
3 4 17 14
3 16 18 17
3 16 15 14
3 15 20 19
3 5 21 20
3 5 4 19
3 6 25 22
3 6 5 24
3 23 22 24
3 15 28 26
3 15 23 27
3 5 26 27
3 6 31 29
3 23 32 31
3 23 30 29
3 30 34 33
3 12 35 34
3 12 6 33
3 36 192 37
3 39 42 40
3 42 38 37
3 30 45 43
3 30 42 44
3 12 43 44
3 46 12 47
3 42 49 47
3 39 194 49
3 38 52 50
3 38 42 51
3 30 50 51
3 7 23 53
3 23 56 55
3 7 54 55
3 56 15 57
3 15 1 59
3 56 58 59
3 38 30 60
3 30 7 62
3 38 61 62
3 56 23 63
3 15 65 63
3 15 56 64
3 7 30 66
3 23 68 66
3 23 7 67
3 1 15 69
3 16 71 69
3 16 1 70
3 10 97 72
3 73 86 74
3 76 78 95
3 75 74 79
3 81 89 82
3 84 88 85
3 84 264 87
3 74 82 89
3 74 86 85
3 90 85 88
3 92 84 86
3 83 82 85
3 91 88 87
3 94 78 137
3 96 264 84
3 38 7 8
3 97 10 98
3 100 103 101
3 97 99 103
3 97 100 102
3 104 547 105
3 107 548 108
3 110 549 111
3 113 550 114
3 116 551 117
3 119 552 120
3 122 133 123
3 123 126 125
3 126 131 127
3 135 134 130
3 134 128 130
3 131 136 132
3 132 136 133
3 134 123 133
3 134 135 126
3 135 130 131
3 130 129 136
3 128 133 136
3 1 16 4
3 4 309 2
3 94 138 140
3 139 138 141
3 78 77 137
3 137 141 138
3 142 151 143
3 142 144 145
3 147 142 146
3 149 151 142
3 149 153 150
3 148 553 152
3 147 152 153
3 68 189 154
3 62 61 155
3 53 163 157
3 62 156 158
3 55 54 157
3 31 170 160
3 22 25 161
3 55 159 163
3 14 17 164
3 32 29 160
3 24 22 162
3 14 165 168
3 69 174 169
3 32 166 170
3 24 167 161
3 18 168 164
3 71 70 169
3 64 63 172
3 69 71 171
3 65 64 173
3 57 181 176
3 65 175 172
3 58 176 177
3 33 34 178
3 28 186 180
3 57 59 177
3 20 187 182
3 33 179 183
3 26 180 184
3 21 19 182
3 34 35 183
3 28 27 184
3 20 21 185
3 67 66 154
3 68 67 188
3 60 158 155
3 49 195 190
3 40 197 191
3 192 554 193
3 194 555 195
3 47 190 196
3 40 37 193
3 45 203 198
3 51 50 199
3 44 43 198
3 51 200 202
3 44 201 203
3 50 52 202
3 0 2 204
3 206 309 3
3 208 207 3
3 0 205 209
3 210 253 211
3 213 208 13
3 214 216 206
3 216 336 217
3 217 336 214
3 218 219 215
3 219 354 207
3 207 354 218
3 220 330 208
3 208 330 222
3 222 220 221
3 223 349 215
3 215 349 224
3 224 223 207
3 225 227 208
3 227 333 221
3 221 333 225
3 228 229 226
3 229 352 213
3 213 352 228
3 230 192 36
3 39 41 232
3 233 232 230
3 234 361 226
3 226 361 235
3 235 234 213
3 46 48 236
3 236 237 233
3 237 194 39
3 238 364 231
3 231 364 239
3 239 238 226
3 209 326 240
3 221 240 241
3 241 326 209
3 205 345 242
3 215 242 243
3 243 345 205
3 231 324 244
3 226 244 245
3 245 324 231
3 205 247 246
3 246 342 215
3 215 342 247
3 209 249 248
3 248 322 221
3 221 322 249
3 204 251 250
3 250 339 217
3 217 339 251
3 252 270 211
3 254 263 255
3 76 258 77
3 79 254 256
3 259 89 81
3 261 265 262
3 262 265 87
3 89 259 254
3 254 259 261
3 265 261 266
3 263 262 268
3 261 259 260
3 87 265 267
3 258 269 312
3 262 264 96
3 8 209 231
3 270 275 212
3 271 274 272
3 270 272 274
3 273 272 270
3 276 556 277
3 279 557 280
3 282 558 283
3 285 559 286
3 288 560 289
3 291 561 292
3 294 298 295
3 297 300 298
3 299 305 300
3 308 307 303
3 307 301 303
3 304 306 305
3 304 296 295
3 295 298 307
3 307 298 300
3 301 300 305
3 302 305 306
3 306 295 308
3 206 217 204
3 204 2 309
3 269 311 312
3 311 139 141
3 311 141 312
3 312 77 258
3 313 562 314
3 145 562 313
3 146 313 316
3 313 315 317
3 318 320 317
3 319 553 148
3 320 319 316
3 321 563 322
3 245 564 323
3 325 331 240
3 327 564 245
3 241 565 325
3 328 338 227
3 220 334 329
3 331 565 241
3 214 566 332
3 333 567 328
3 222 568 334
3 335 566 214
3 337 569 250
3 338 567 333
3 329 568 222
3 332 335 336
3 339 341 337
3 247 343 340
3 250 569 341
3 342 570 343
3 344 571 242
3 340 570 342
3 346 344 345
3 228 572 347
3 348 573 349
3 242 571 346
3 350 574 219
3 351 572 228
3 353 348 223
3 354 355 350
3 229 347 351
3 349 573 353
3 219 574 355
3 249 356 321
3 322 563 356
3 323 327 244
3 357 359 237
3 191 575 232
3 358 554 192
3 359 555 194
3 196 357 236
3 232 575 358
3 360 365 361
3 239 576 362
3 235 577 360
3 363 576 239
3 365 577 235
3 238 362 363
3 366 381 367
3 369 380 370
3 372 377 373
3 373 377 371
3 374 373 375
3 369 371 377
3 370 380 378
3 376 375 379
3 369 376 378
3 371 370 379
3 381 385 382
3 368 384 383
3 367 382 384
3 366 383 385
3 386 395 387
3 389 396 390
3 392 400 393
3 391 390 388
3 395 386 396
3 397 386 388
3 392 390 396
3 394 388 390
3 398 396 386
3 399 401 393
3 394 393 401
3 397 401 399
3 398 399 400
3 402 431 403
3 405 578 406
3 408 414 409
3 411 579 412
3 414 419 415
3 416 422 417
3 419 423 420
3 421 425 422
3 423 426 424
3 407 406 425
3 426 428 427
3 428 580 429
3 430 432 431
3 413 412 432
3 433 443 434
3 436 439 437
3 434 443 436
3 439 445 440
3 441 444 439
3 442 446 443
3 444 450 445
3 446 441 436
3 447 479 444
3 448 451 446
3 444 479 449
3 451 447 441
3 452 458 453
3 455 460 456
3 458 581 459
3 460 452 454
3 435 465 461
3 462 466 463
3 464 463 461
3 440 445 466
3 466 468 467
3 461 469 442
3 445 450 468
3 463 467 469
3 468 471 470
3 469 472 448
3 468 450 449
3 467 470 472
3 473 477 474
3 476 478 455
3 459 581 477
3 475 474 478
3 454 453 479
3 457 456 451
3 479 453 459
3 456 454 447
3 471 473 475
3 472 476 457
3 449 459 473
3 470 475 476
3 480 582 481
3 483 583 484
3 486 584 487
3 489 585 490
3 492 586 493
3 495 587 496
3 498 588 499
3 501 589 502
3 504 510 505
3 507 513 508
3 510 507 509
3 504 515 511
3 512 517 513
3 514 524 511
3 512 529 516
3 518 514 515
3 520 529 512
3 524 514 522
3 514 540 522
3 516 529 525
3 529 532 525
3 527 540 514
3 528 532 529
3 523 522 530
3 532 528 533
3 528 531 530
3 524 523 531
3 531 528 520
3 516 526 535
3 535 527 518
3 511 524 534
3 534 520 521
3 517 516 536
3 536 518 519
3 507 510 537
3 510 511 537
3 537 521 507
3 504 513 538
3 513 517 538
3 538 519 504
3 513 504 506
3 539 545 522
3 541 544 533
3 533 544 542
3 543 590 544
3 539 543 541
3 544 590 546
3 527 543 539
3 535 590 543
3 545 541 530
3 525 542 546
3 546 590 535
