ply
format ascii 1.0
comment Created by Blender 2.81 (sub 16) - www.blender.org, source file: 'solar_system.blend'
element vertex 40
property float x
property float y
property float z
property uchar red
property uchar green
property uchar blue
property uchar alpha
element face 40
property list uchar uint vertex_indices
end_header
6.566473 0.217901 -2.600337 29 29 29 255
5.644676 -0.815159 -4.384352 75 75 75 255
7.410068 -0.975846 -0.184992 26 26 26 255
4.281174 0.726658 -5.570890 27 27 27 255
2.312415 0.791468 -7.023027 30 30 30 255
0.000000 1.334212 -7.038074 28 28 28 255
-2.177794 0.101167 -6.802624 26 26 26 255
-4.210557 1.079400 -5.693921 26 26 26 255
-5.999768 -1.129520 -4.705940 70 70 70 255
-6.812829 0.412288 -2.174854 26 26 26 255
-7.055949 -0.982512 -0.187327 26 26 26 255
-6.822001 -0.204112 2.223987 18 18 18 255
-6.009982 -1.549556 4.128609 26 26 26 255
-4.210557 -1.079400 5.693921 27 27 27 255
-2.199416 -1.833731 6.592947 26 26 26 255
-0.181592 -0.511611 7.002648 27 27 27 255
2.408875 -1.340321 6.819322 79 79 79 255
4.230519 -0.558095 5.753517 26 26 26 255
5.745830 -1.487575 3.984153 57 57 57 255
6.807983 0.313072 2.314913 60 60 60 255
6.496589 1.955245 4.719992 31 31 31 255
7.677015 2.696662 0.089975 13 13 13 255
7.770593 -1.697727 2.524779 26 26 26 255
-2.481428 1.955247 7.637179 13 13 13 255
2.360052 2.298527 7.263354 13 13 13 255
0.015004 -2.047268 8.166634 26 26 26 255
-7.900265 2.519817 0.025839 13 13 13 255
-6.357337 1.414031 4.299519 26 26 26 255
-7.770593 -1.697727 2.524779 21 21 21 255
-2.602890 2.328534 -7.560959 26 26 26 255
-6.223292 1.650082 -4.449258 26 26 26 255
-4.855992 -1.327784 -6.565530 27 27 27 255
6.477719 1.732285 -4.748185 24 24 24 255
2.360052 2.298527 -7.263354 26 26 26 255
4.881584 -1.446427 -6.493255 13 13 13 255
4.802486 -1.697727 6.610049 26 26 26 255
-4.662570 -2.254878 6.542800 27 27 27 255
-7.829817 -1.413628 -2.534397 26 26 26 255
0.076989 -2.191346 -8.136440 14 14 14 255
7.770593 -1.697727 -2.524779 26 26 26 255
3 0 1 2
3 0 3 1
3 3 4 1
3 5 6 4
3 5 7 6
3 7 8 6
3 9 10 8
3 9 11 10
3 11 12 10
3 13 14 12
3 13 15 14
3 15 16 14
3 17 18 16
3 17 19 18
3 19 2 18
3 3 5 4
3 7 9 8
3 11 13 12
3 15 17 16
3 19 0 2
3 20 21 22
3 23 24 25
3 26 27 28
3 29 30 31
3 32 33 34
3 20 22 35
3 23 25 36
3 26 28 37
3 29 31 38
3 32 34 39
3 34 33 38
3 33 29 38
3 31 30 37
3 30 26 37
3 28 27 36
3 27 23 36
3 25 24 35
3 24 20 35
3 22 21 39
3 21 32 39
