ply
format ascii 1.0
comment Created by Blender 2.81 (sub 16) - www.blender.org, source file: 'solar_system.blend'
element vertex 48
property float x
property float y
property float z
property uchar red
property uchar green
property uchar blue
property uchar alpha
element face 92
property list uchar uint vertex_indices
end_header
0.095957 -0.343061 -0.140795 200 53 75 255
0.135772 -0.338914 0.100179 201 63 83 255
-0.041337 -0.369125 -0.073823 217 122 140 255
0.260345 -0.270266 -0.043546 191 22 46 255
-0.096002 -0.355373 0.099026 205 77 97 255
0.008070 -0.276759 0.260105 191 24 46 255
-0.328822 -0.036821 -0.188581 162 36 58 255
-0.181251 0.090985 -0.326832 157 36 58 255
-0.209354 -0.146611 -0.278423 178 34 52 255
0.016829 -0.197404 -0.322865 190 27 47 255
0.128239 -0.028759 -0.355850 187 27 47 255
0.187113 -0.185641 -0.275353 191 22 45 255
0.328458 -0.180199 0.086813 190 21 45 255
0.373784 -0.040919 -0.017740 172 29 54 255
0.335249 0.114036 0.135427 170 29 51 255
0.199618 0.173535 -0.273882 156 34 54 255
0.124215 0.285438 -0.207426 149 38 57 255
0.264003 0.248632 -0.105554 148 37 56 255
-0.000357 0.193844 -0.326634 153 37 56 255
-0.017094 0.137302 0.351661 186 28 55 255
-0.064347 0.304194 0.218224 166 42 63 255
-0.193267 0.201885 0.257580 182 25 48 255
0.105228 0.309800 0.190033 164 45 63 255
0.173937 0.202608 0.269782 174 28 50 255
-0.339129 0.126736 0.107946 176 28 53 255
-0.242610 0.281765 0.071146 166 32 54 255
-0.316653 0.191858 -0.087183 181 25 49 255
-0.039252 0.366657 0.090456 190 124 139 255
-0.060791 0.358299 -0.126481 171 84 102 255
0.093481 0.365364 -0.033680 184 111 126 255
0.261969 0.267576 0.065867 151 37 55 255
0.341571 0.140448 -0.084724 151 36 57 255
-0.218324 0.240459 -0.206438 169 30 52 255
-0.299093 0.018517 0.229746 162 33 58 255
-0.376025 0.041747 -0.011935 162 32 58 255
0.124619 -0.017189 0.359250 172 36 65 255
0.271659 0.022954 0.268251 169 31 57 255
-0.042824 -0.143718 0.347605 183 28 55 255
-0.154976 0.055238 0.343466 169 33 61 255
0.312859 -0.152621 -0.153624 180 26 50 255
0.294877 0.045822 -0.234856 167 31 55 255
-0.337403 -0.123781 0.125049 176 27 52 255
-0.318953 -0.175846 -0.113173 181 30 50 255
-0.259379 -0.275983 0.009648 191 23 47 255
-0.222892 -0.185235 0.250327 185 24 48 255
-0.146179 -0.285533 -0.201196 191 27 46 255
-0.043845 -0.042098 -0.375615 183 34 51 255
0.180485 -0.199515 0.271302 187 24 48 255
3 0 1 2
3 1 0 3
3 4 1 5
3 6 7 8
3 9 10 11
3 12 13 14
3 15 16 17
3 16 15 18
3 19 20 21
3 22 19 23
3 24 25 26
3 25 24 21
3 20 27 25
3 27 28 25
3 28 27 29
3 25 21 20
3 23 30 22
3 30 23 14
3 17 30 31
3 28 32 25
3 24 33 21
3 34 24 26
3 35 36 23
3 37 35 38
3 36 14 23
3 39 40 13
3 11 10 40
3 41 42 43
3 5 44 4
3 12 1 3
3 3 39 12
3 0 11 39
3 44 43 4
3 41 43 44
3 2 4 43
3 45 9 0
3 8 45 42
3 43 42 45
3 2 1 4
3 10 9 46
3 12 39 13
3 35 47 36
3 33 44 38
3 44 33 41
3 22 20 19
3 22 27 20
3 29 27 22
3 30 29 22
3 29 30 17
3 15 17 31
3 16 28 29
3 18 28 16
3 17 16 29
3 7 32 18
3 28 18 32
3 32 26 25
3 41 33 24
3 33 38 21
3 19 35 23
3 30 14 31
3 13 31 14
3 40 31 13
3 10 15 40
3 15 10 18
3 7 18 46
3 46 18 10
3 7 6 32
3 32 6 26
3 34 26 6
3 35 19 38
3 21 38 19
3 44 37 38
3 47 37 5
3 35 37 47
3 12 36 47
3 14 36 12
3 31 40 15
3 40 39 11
3 7 46 8
3 8 46 9
3 6 8 42
3 41 34 42
3 42 34 6
3 24 34 41
3 44 5 37
3 5 1 47
3 47 1 12
3 3 0 39
3 9 11 0
3 45 2 43
3 2 45 0
3 9 45 8
