ply
format ascii 1.0
comment Created by Blender 2.81 (sub 16) - www.blender.org, source file: 'solar_system.blend'
element vertex 167
property float x
property float y
property float z
property uchar red
property uchar green
property uchar blue
property uchar alpha
element face 326
property list uchar uint vertex_indices
end_header
-0.554597 -0.758596 -0.315213 197 114 255 255
-0.769341 -0.406184 -0.482435 198 101 255 255
-0.590658 -0.566941 -0.557176 182 76 255 255
0.305599 -0.923557 0.181926 226 187 255 255
-0.016199 -0.981563 0.150215 228 190 255 255
0.259929 -0.950560 -0.091626 229 192 255 255
0.972815 -0.147620 -0.125834 224 144 255 255
0.912961 -0.347304 0.163971 211 127 255 255
0.896982 -0.383683 -0.170160 201 106 255 255
-0.787514 -0.110626 0.587580 186 122 255 255
-0.762618 -0.441385 0.461745 194 94 255 255
-0.625657 -0.383685 0.664893 201 105 255 255
-0.092459 0.986366 0.026799 228 190 255 255
-0.305599 0.923557 0.181926 225 185 253 255
0.081065 0.976549 0.152807 228 190 255 255
-0.153298 0.872857 0.434707 221 178 251 255
-0.501432 0.800098 0.280997 168 85 225 255
-0.460806 0.872855 -0.011464 220 175 251 255
-0.314207 0.789877 0.495271 174 98 228 255
-0.572130 0.599984 0.539002 135 55 234 255
-0.177197 0.661140 0.713435 143 63 222 255
-0.724750 0.588940 0.312987 137 60 236 255
-0.687449 0.700927 0.103651 143 46 217 255
-0.855833 0.506474 0.025472 139 69 243 255
-0.782585 0.390202 0.454064 143 89 255 255
-0.351721 0.564261 0.733924 137 65 233 255
-0.596009 0.342740 0.711861 145 91 255 255
0.002735 0.761318 0.623204 158 68 222 255
0.100124 0.886876 0.417914 224 182 252 255
0.295055 0.769327 0.545463 158 76 223 255
0.138373 0.573152 0.794333 137 61 237 255
-0.170363 0.400823 0.890926 144 91 254 255
0.554162 0.594035 0.561322 133 46 227 255
0.385660 0.512860 0.746989 141 82 249 255
0.625657 0.383685 0.664893 143 89 255 255
0.322652 0.895338 0.251776 228 190 255 255
0.170160 0.977332 -0.016172 229 192 255 255
0.697872 0.653922 0.242881 137 57 221 255
0.508454 0.758197 0.369274 170 93 227 255
0.507171 0.794447 -0.302998 167 83 225 255
0.510045 0.846263 0.045855 196 142 238 255
0.789772 0.587815 -0.103709 136 62 235 255
0.736462 0.505272 0.427962 143 78 244 255
0.873243 0.455350 0.074380 146 95 253 255
0.689353 0.619339 -0.336925 130 31 221 255
0.792461 0.412420 -0.430518 146 91 253 255
0.607743 0.529669 -0.579994 136 61 239 255
0.379538 0.872857 -0.261576 220 177 251 255
0.061360 0.959899 -0.221247 229 191 255 255
0.356912 0.745409 -0.536806 152 60 221 255
0.164645 0.886876 -0.396950 223 182 252 255
0.155320 0.723481 -0.653298 141 45 219 255
-0.146836 0.564261 -0.800495 135 52 233 255
0.180401 0.465875 -0.852911 142 84 252 255
-0.119273 0.398509 -0.898970 143 89 255 255
-0.127211 0.787288 -0.583982 176 98 230 255
-0.171184 0.936130 -0.279912 228 190 255 255
-0.323527 0.609432 -0.704259 131 37 222 255
-0.677421 0.689983 -0.204810 137 39 219 255
-0.396466 0.873840 -0.224502 217 170 250 255
-0.419168 0.779403 -0.437238 163 77 224 255
-0.578841 0.573151 -0.561299 142 71 237 255
-0.433933 0.403807 -0.795636 146 92 254 255
-0.751075 0.512858 -0.377644 147 92 249 255
-0.889508 0.371547 -0.213969 144 90 255 255
-0.887852 0.318901 0.292044 143 90 255 255
-0.951443 0.274760 0.002549 154 97 255 255
-0.905481 -0.115590 0.369452 181 116 255 255
-0.895816 0.134506 0.383858 145 92 255 255
-0.744621 0.139839 0.630716 160 104 255 255
-0.497362 0.046989 0.852914 202 128 255 255
-0.364767 0.286536 0.873690 152 97 255 255
0.048072 0.035553 0.984127 209 132 255 255
0.016239 0.302415 0.938937 149 94 255 255
-0.201876 0.129490 0.957656 186 118 255 255
0.313004 -0.341646 0.875290 206 112 255 255
0.224988 -0.163572 0.949022 224 142 255 255
0.074642 -0.365008 0.914468 206 113 255 255
0.645831 -0.000378 0.747115 217 138 255 255
0.336589 -0.013445 0.926149 220 139 255 255
0.574275 -0.275691 0.758612 217 131 255 255
0.456887 0.221937 0.844500 165 103 255 255
0.240950 0.275118 0.916843 155 97 255 255
0.950441 -0.050880 0.261576 220 143 255 255
0.934640 0.249363 0.188391 156 99 255 255
0.848403 0.129489 0.487926 186 117 255 255
0.834983 0.347304 0.403964 146 94 255 255
0.984042 0.014124 0.051411 216 137 255 255
0.971389 0.148849 -0.078386 183 116 255 255
0.908443 0.301863 -0.241026 151 99 255 255
0.896000 0.061164 -0.414799 192 116 255 255
0.586887 0.339608 -0.715916 144 90 255 255
0.683502 0.191162 -0.692631 169 103 255 255
0.296434 -0.274763 -0.904088 214 129 255 255
0.512182 -0.097051 -0.835090 225 146 255 255
0.585467 -0.287541 -0.744307 216 132 255 255
0.385696 0.512674 -0.747098 141 80 249 255
0.260777 0.077744 -0.950978 197 125 255 255
-0.043939 0.196152 -0.969184 171 109 255 255
-0.279603 0.200173 -0.924153 165 109 255 255
-0.615170 -0.050883 -0.770277 220 142 255 255
-0.709576 0.198480 -0.659936 172 109 255 255
-0.420971 0.249952 -0.861957 162 105 255 255
-0.802317 -0.107059 -0.564319 224 142 255 255
-0.597903 -0.365008 -0.695942 206 114 255 255
-0.932249 0.072518 -0.320360 200 131 255 255
-0.904503 -0.283581 -0.286510 217 131 255 255
-0.631033 -0.115703 0.747101 216 138 255 255
-0.186160 -0.198481 0.950977 222 139 255 255
-0.127107 -0.512675 0.831120 187 83 255 255
0.150344 -0.566942 0.797946 182 75 255 255
0.670657 0.196637 0.697345 167 105 255 255
0.846111 -0.177685 0.478472 225 145 255 255
0.572131 -0.599984 0.539001 183 77 255 255
0.371519 -0.544313 0.741125 185 79 255 255
0.784867 -0.384408 0.456909 206 114 255 255
0.741777 -0.014805 -0.646175 196 104 255 255
0.808591 -0.270788 -0.499305 213 125 255 255
0.605935 -0.501516 -0.591988 187 83 255 255
0.387759 -0.547144 -0.728889 184 80 255 255
0.071370 -0.371549 -0.912092 205 111 255 255
0.052596 -0.111818 -0.976655 224 142 255 255
-0.467994 -0.249364 -0.830677 220 137 255 255
-0.352981 -0.014123 -0.919993 221 153 255 255
-0.195706 -0.184630 -0.949715 225 148 255 255
-0.180401 -0.465875 -0.852911 195 96 255 255
-0.385696 -0.512675 -0.747098 187 83 255 255
-0.965089 0.025550 0.208279 170 108 255 255
-0.904765 -0.321125 0.229703 214 128 255 255
-0.865883 -0.473729 0.052959 193 92 255 255
-0.760137 -0.591645 -0.216278 183 76 255 255
-0.321209 -0.901140 0.233504 228 191 255 255
-0.170379 -0.976549 -0.029876 230 193 255 255
-0.554162 -0.594034 0.561323 182 75 255 255
-0.371210 -0.525410 0.745166 185 79 255 255
-0.145476 -0.845262 0.493927 214 156 255 255
-0.377258 -0.724456 0.551422 189 93 255 255
-0.508137 -0.766254 0.351819 207 136 255 255
0.240336 -0.787288 0.547226 205 132 255 255
0.122816 -0.901140 0.377643 228 190 255 255
0.501432 -0.800098 0.280996 201 123 255 255
0.724750 -0.588940 0.312986 182 75 255 255
0.521613 -0.834537 -0.059584 219 166 255 255
0.847362 -0.505269 0.086648 184 79 255 255
0.687449 -0.700927 0.103651 190 95 255 255
0.736859 -0.640438 -0.163657 184 80 255 255
0.751074 -0.512858 -0.377644 187 82 255 255
0.122609 -0.901140 -0.377710 230 194 255 255
-0.037202 -0.977332 -0.166830 230 195 255 255
0.204291 -0.766254 -0.583306 207 135 255 255
0.216886 -0.533882 -0.805455 183 76 255 255
-0.694549 -0.670031 0.213503 184 81 255 255
-0.655471 -0.735441 -0.005911 191 98 255 255
0.053572 -0.667959 -0.724074 185 85 255 255
-0.102606 -0.804870 -0.559889 203 129 255 255
-0.147682 -0.663532 -0.712656 182 75 255 255
-0.379538 -0.872857 -0.261576 225 182 255 255
-0.164646 -0.886875 -0.396950 226 186 255 255
-0.356913 -0.745408 -0.536807 195 106 255 255
0.439421 0.204355 -0.860349 168 106 255 255
-0.812556 0.301640 -0.473095 151 98 255 255
-0.385094 -0.312106 0.854170 214 126 255 255
-0.985019 -0.077744 -0.045854 218 139 255 255
-0.122426 -0.701800 0.683770 185 83 255 255
0.353794 -0.861671 -0.327728 222 174 255 255
0.501005 -0.723430 -0.451721 189 92 255 255
-0.478859 -0.861672 0.057183 222 175 255 255
3 0 1 2
3 3 4 5
3 6 7 8
3 9 10 11
3 12 13 14
3 13 15 14
3 16 13 17
3 18 16 19
3 15 18 20
3 21 22 23
3 21 24 19
3 25 19 26
3 19 25 18
3 27 28 15
3 28 27 29
3 27 20 30
3 30 20 31
3 30 29 27
3 32 33 34
3 35 36 14
3 37 38 32
3 39 40 41
3 42 37 32
3 43 37 42
3 44 41 45
3 41 44 39
3 44 45 46
3 47 48 36
3 46 39 44
3 49 50 47
3 50 49 51
3 52 53 54
3 51 52 55
3 56 12 48
3 57 55 52
3 12 56 13
3 56 17 13
3 58 59 60
3 59 58 17
3 17 58 22
3 22 58 23
3 60 57 61
3 61 57 62
3 58 63 64
3 23 58 64
3 65 23 66
3 9 67 10
3 68 69 65
3 69 24 65
3 26 24 69
3 24 26 19
3 26 70 71
3 26 71 25
3 25 71 31
3 72 73 74
3 74 73 31
3 73 30 31
3 75 76 77
3 78 79 80
3 80 76 75
3 79 81 82
3 81 79 78
3 83 84 85
3 6 83 7
3 86 43 42
3 87 84 83
3 84 87 88
3 41 89 45
3 89 90 45
3 91 46 92
3 93 94 95
3 91 96 46
3 53 97 98
3 98 54 53
3 54 98 99
3 52 54 62
3 100 101 102
3 103 100 104
3 1 103 104
3 105 103 106
3 106 103 1
3 64 105 66
3 11 107 9
3 74 71 70
3 70 108 74
3 72 108 76
3 77 109 110
3 111 86 34
3 85 111 78
3 78 112 85
3 113 80 114
3 115 7 112
3 116 92 90
3 90 92 45
3 90 117 116
3 95 116 117
3 116 95 94
3 95 118 119
3 95 119 93
3 99 102 54
3 120 121 93
3 122 123 124
3 123 122 100
3 124 120 125
3 104 126 2
3 66 127 65
3 67 128 10
3 129 106 130
3 130 106 1
3 128 129 10
3 4 131 132
3 133 134 11
3 135 136 137
4 16 22 21 19
3 110 138 114
3 3 139 4
3 113 114 138
3 138 140 113
3 141 115 113
3 142 3 5
3 140 3 142
3 143 144 145
3 141 144 143
3 142 145 144
3 145 146 8
3 147 5 148
3 119 149 150
3 129 151 10
3 10 151 133
3 151 137 133
3 152 151 129
3 0 152 130
3 149 153 150
3 150 153 120
3 153 125 120
3 153 154 155
3 156 148 132
3 157 158 154
3 158 157 156
3 130 1 0
3 4 148 5
3 93 150 120
3 75 114 80
3 143 8 7
3 52 62 57
3 25 31 20
3 17 22 16
3 18 15 13
3 16 18 13
3 20 18 25
4 21 23 65 24
3 36 12 14
3 15 28 14
3 15 20 27
3 29 35 28
3 28 35 14
3 35 29 38
3 32 38 29
3 30 33 29
3 29 33 32
3 34 42 32
3 35 40 36
3 40 38 37
3 39 47 40
3 40 47 36
3 38 40 35
3 41 37 43
3 37 41 40
3 12 36 48
3 47 50 48
3 49 39 46
3 47 39 49
3 55 56 50
3 50 56 48
3 51 55 50
3 46 96 49
3 49 96 51
3 53 51 96
3 51 53 52
3 59 56 60
3 60 55 57
3 59 17 56
3 55 60 56
3 60 61 58
3 61 63 58
3 127 68 65
3 68 67 9
4 141 143 7 115
3 67 68 127
3 69 68 9
3 9 107 69
3 70 69 107
3 69 70 26
3 72 76 79
3 82 30 73
3 82 72 79
3 73 72 82
3 30 82 33
3 34 33 81
3 81 33 82
3 80 79 76
3 78 111 81
3 81 111 34
3 85 84 86
3 87 83 6
3 84 43 86
3 88 43 84
3 89 43 88
3 89 41 43
3 87 6 88
3 90 88 6
3 88 90 89
3 91 92 159
3 159 94 97
3 97 94 93
3 53 96 159
3 159 96 91
3 94 159 92
3 97 53 159
3 121 97 93
3 98 97 121
3 102 101 62
3 101 100 103
3 160 61 101
3 101 61 62
3 61 160 63
3 64 63 160
3 103 105 101
3 101 105 160
3 160 105 64
3 66 23 64
3 74 31 71
3 70 107 161
3 161 107 11
3 72 74 108
3 108 70 161
3 76 108 77
3 134 161 11
3 109 161 134
3 161 109 108
3 108 109 77
3 110 75 77
3 85 86 111
3 42 34 86
3 83 85 112
3 112 78 80
3 83 112 7
3 115 80 113
3 80 115 112
4 140 144 141 113
3 46 45 92
3 90 6 117
3 117 6 8
3 92 116 94
3 8 146 117
3 118 117 146
3 117 118 95
3 150 93 119
3 62 54 102
3 99 98 123
3 123 98 124
3 124 121 120
3 123 102 99
3 100 102 123
3 121 124 98
3 100 122 104
3 124 125 122
3 125 126 122
3 122 126 104
3 2 1 104
3 105 162 66
3 105 106 162
3 162 127 66
3 128 127 162
3 128 67 127
3 106 129 162
3 162 129 128
3 11 10 133
3 137 136 133
3 135 131 4
3 163 134 136
3 136 134 133
3 131 135 137
3 135 163 136
3 134 163 109
3 110 109 163
3 4 139 135
3 138 135 139
3 135 138 163
3 163 138 110
3 75 110 114
3 138 139 3
3 140 138 3
3 142 144 140
3 8 143 145
3 142 5 164
3 165 146 145
3 165 142 164
3 145 142 165
3 146 165 118
3 118 165 119
3 5 147 164
3 149 164 147
3 164 149 165
3 165 149 119
3 129 130 152
3 166 137 151
3 152 166 151
3 137 166 131
3 132 131 166
3 152 0 166
3 0 156 166
3 166 156 132
3 148 4 132
3 154 153 149
3 154 147 157
3 157 147 148
3 155 125 153
3 147 154 149
3 158 155 154
3 125 155 126
3 2 126 158
3 158 126 155
3 156 157 148
3 156 0 158
3 158 0 2
