ply
format ascii 1.0
comment Created by Blender 2.81 (sub 16) - www.blender.org, source file: ''
element vertex 88
property float x
property float y
property float z
property uchar red
property uchar green
property uchar blue
property uchar alpha
element face 172
property list uchar uint vertex_indices
end_header
-1.000000 -0.000000 0.993840 0 255 28 255
1.000000 -1.000000 0.315634 0 255 37 255
1.000000 -0.000000 0.993840 0 255 30 255
-1.000000 -1.000000 -0.315634 0 255 28 255
-0.356516 -2.519163 0.112528 31 0 255 255
-1.000000 -1.000000 0.315634 17 255 33 255
-1.000000 0.963210 0.315634 0 255 28 255
-1.247853 -0.006028 0.510285 0 255 28 255
1.000000 0.000000 -0.933017 0 255 28 255
-1.000000 0.000000 -0.933017 0 255 28 255
1.000000 0.963210 -0.315634 0 255 28 255
1.482967 -0.006220 -0.454655 0 255 28 255
1.000000 0.963210 0.315634 2 255 28 255
1.482967 0.468455 -0.150405 0 255 34 255
2.058780 -2.670540 2.262715 18 4 255 255
0.356516 -2.519163 0.112528 31 0 255 255
1.000000 -1.000000 -0.315634 2 255 28 255
-0.356516 -2.519163 -0.112528 31 0 255 255
0.356516 -2.519163 -0.112528 31 0 255 255
2.058780 -2.670540 -1.969925 24 16 255 255
-2.154511 -2.754299 -1.953858 47 45 255 255
-2.154511 -2.670361 -1.953858 72 71 255 255
-2.154511 -2.670361 2.245872 17 3 255 255
-2.154511 -2.754299 2.245872 18 5 255 255
0.159298 -2.869851 0.361102 255 0 20 255
2.059304 -2.754215 2.262054 17 3 255 255
2.059304 -2.754215 -1.970040 32 27 255 255
-0.270679 -2.869851 -0.069088 255 0 21 255
0.159298 -2.869851 -0.069088 255 0 20 255
-0.270679 -2.869851 0.361102 255 0 20 255
-0.413792 1.852406 0.130607 0 150 255 255
-1.247853 -0.514462 -0.155496 0 255 28 255
1.482967 -0.499026 0.160687 0 255 36 255
1.482967 -0.499026 -0.150405 1 255 28 255
1.482967 0.468455 0.160687 0 255 28 255
1.482967 -0.006220 0.494911 0 255 37 255
-1.247853 -0.514462 0.165462 0 255 28 255
-1.247853 -0.006028 -0.469395 0 255 28 255
-1.247853 0.483701 0.165462 0 255 28 255
-1.247853 0.483701 -0.155496 0 255 28 255
-1.000000 0.963210 -0.315634 2 255 28 255
-0.705085 1.909969 -0.222549 0 150 255 255
-0.413792 1.852406 -0.130607 0 150 255 255
0.413792 1.852406 0.130607 0 150 255 255
0.413792 1.852406 -0.130607 0 150 255 255
0.705085 1.909969 0.222549 14 151 255 255
-0.705085 2.300812 0.222549 0 150 255 255
-0.705085 1.909969 0.222549 0 150 255 255
0.705085 1.909969 -0.222549 0 150 255 255
0.705085 2.300812 -0.222549 0 150 255 255
-0.705085 2.300812 -0.222549 0 150 255 255
1.602842 1.909969 -0.222549 47 154 255 255
-1.254267 2.244849 -0.158818 0 150 255 255
-1.254267 2.244849 0.158818 0 150 255 255
-1.994458 2.078431 0.030701 0 150 255 255
-1.254267 1.965931 0.158818 0 150 255 255
-1.254267 1.965931 -0.158818 0 150 255 255
-1.994458 2.132349 -0.030701 0 150 255 255
-1.994458 2.078431 -0.030701 86 165 255 255
-1.994458 2.132349 0.030701 0 150 255 255
1.602842 1.909969 0.222549 13 151 255 255
1.602842 2.239095 0.152265 0 150 255 255
1.602842 2.300812 0.222549 0 150 255 255
0.705085 2.300812 0.222549 0 150 255 255
1.602842 2.300812 -0.222549 0 150 255 255
1.602842 1.971685 -0.152265 6 150 255 255
1.492731 1.971685 0.152265 0 150 255 255
1.602842 1.971685 0.152265 1 150 255 255
1.602842 2.239095 -0.152265 0 150 255 255
1.492731 2.239095 -0.152265 0 150 255 255
1.492731 2.011350 -0.107095 0 150 255 255
1.492731 1.971685 -0.152265 0 150 255 255
1.492731 2.239095 0.152265 0 150 255 255
1.492731 2.011350 0.107095 0 150 255 255
2.995603 2.199431 0.107095 250 46 13 255
1.492731 2.199431 0.107095 0 150 255 255
1.492731 2.199431 -0.107095 0 150 255 255
2.995603 2.199431 -0.107095 255 8 0 255
2.995603 2.052091 -0.060698 255 8 0 255
2.995603 2.011350 -0.107095 255 8 3 255
2.995603 2.011350 0.107095 255 8 0 255
2.995603 2.158689 0.060698 255 8 0 255
2.886048 2.158689 -0.060698 255 8 0 255
2.995603 2.158689 -0.060698 255 8 0 255
2.995603 2.052091 0.060698 255 8 0 255
2.886048 2.052091 -0.060698 255 8 0 255
2.886048 2.158689 0.060698 255 8 0 255
2.886048 2.052091 0.060698 255 8 0 255
3 0 1 2
3 3 4 5
3 6 7 0
3 8 3 9
3 10 11 8
3 12 13 10
3 4 14 15
3 16 17 3
3 5 15 1
3 1 18 16
3 19 20 21
3 4 21 22
3 17 19 21
3 15 19 18
3 23 24 25
3 19 25 26
3 14 23 25
3 21 23 22
3 24 27 28
3 20 29 23
3 20 28 27
3 26 24 28
3 12 30 6
3 5 31 3
3 9 10 8
3 2 6 0
3 11 32 33
3 11 34 35
3 1 33 32
3 16 11 33
3 1 35 2
3 12 35 34
3 36 37 31
3 37 38 39
3 6 39 38
3 3 37 9
3 5 7 36
3 40 37 39
3 30 41 42
3 10 43 12
3 6 42 40
3 40 44 10
3 45 46 47
3 42 48 44
3 43 47 30
3 44 45 43
3 46 49 50
3 49 51 48
3 46 52 53
3 41 49 48
3 53 54 55
3 41 52 50
3 41 55 56
3 46 55 47
3 54 57 58
3 55 58 56
3 56 57 52
3 52 59 53
3 60 61 62
3 48 60 45
3 45 62 63
3 63 64 49
3 65 66 67
3 51 67 60
3 64 65 51
3 62 68 64
3 69 70 71
3 68 71 65
3 61 69 68
3 67 72 61
3 73 74 75
3 72 76 69
3 66 75 72
3 71 73 66
3 77 78 79
3 70 80 73
3 76 79 70
3 75 77 76
3 81 82 83
3 74 83 77
3 80 81 74
3 79 84 80
3 85 86 87
3 84 86 81
3 78 87 84
3 83 85 78
3 0 5 1
3 3 17 4
3 6 38 7
3 8 16 3
3 10 13 11
3 12 34 13
3 4 22 14
3 16 18 17
3 5 4 15
3 1 15 18
3 19 26 20
3 4 17 21
3 17 18 19
3 15 14 19
3 23 29 24
3 19 14 25
3 14 22 23
3 21 20 23
3 24 29 27
3 20 27 29
3 20 26 28
3 26 25 24
3 12 43 30
3 5 36 31
3 9 40 10
3 2 12 6
3 11 35 32
3 11 13 34
3 1 16 33
3 16 8 11
3 1 32 35
3 12 2 35
3 36 7 37
3 37 7 38
3 6 40 39
3 3 31 37
3 5 0 7
3 40 9 37
3 30 47 41
3 10 44 43
3 6 30 42
3 40 42 44
3 45 63 46
3 42 41 48
3 43 45 47
3 44 48 45
3 46 63 49
3 49 64 51
3 46 50 52
3 41 50 49
3 53 59 54
3 41 56 52
3 41 47 55
3 46 53 55
3 54 59 57
3 55 54 58
3 56 58 57
3 52 57 59
3 60 67 61
3 48 51 60
3 45 60 62
3 63 62 64
3 65 71 66
3 51 65 67
3 64 68 65
3 62 61 68
3 69 76 70
3 68 69 71
3 61 72 69
3 67 66 72
3 73 80 74
3 72 75 76
3 66 73 75
3 71 70 73
3 77 83 78
3 70 79 80
3 76 77 79
3 75 74 77
3 81 86 82
3 74 81 83
3 80 84 81
3 79 78 84
3 85 82 86
3 84 87 86
3 78 85 87
3 83 82 85
