ply
format ascii 1.0
comment Created by Blender 2.81 (sub 16) - www.blender.org, source file: 'solar_system.blend'
element vertex 21
property float x
property float y
property float z
property uchar red
property uchar green
property uchar blue
property uchar alpha
element face 38
property list uchar uint vertex_indices
end_header
-0.163143 -0.011407 -0.277856 255 255 255 255
-0.236417 -0.217693 0.025777 255 255 255 255
-0.301246 -0.089705 -0.007487 255 255 255 255
0.182413 -0.236894 0.110588 255 255 255 255
0.166396 -0.222436 -0.140373 255 255 255 255
0.314503 -0.011822 -0.069559 255 255 255 255
0.120094 0.005299 -0.294404 255 255 255 255
-0.068432 -0.242585 0.185118 255 255 255 255
-0.190443 0.037491 0.255307 255 255 255 255
-0.297343 0.101486 -0.004773 255 255 255 255
0.207413 0.164870 0.167444 255 255 255 255
0.069003 -0.037320 0.308273 255 255 255 255
0.237425 -0.016352 0.202325 255 255 255 255
-0.073484 0.144082 0.264827 255 255 255 255
-0.179403 0.250932 0.052552 255 255 255 255
-0.111288 0.220274 -0.197097 255 255 255 255
-0.023198 0.310941 -0.035208 255 255 255 255
0.047625 0.266247 0.150693 255 255 255 255
-0.033029 -0.285393 -0.149286 255 255 255 255
0.239500 0.195734 -0.070163 255 255 255 255
0.080671 0.242142 -0.175298 255 255 255 255
3 0 1 2
3 3 4 5
3 6 5 4
3 7 8 1
3 9 0 2
3 10 11 12
3 11 10 13
3 9 8 14
3 8 9 2
3 14 15 9
3 16 15 14
3 10 17 13
3 14 8 13
3 14 17 16
3 0 18 1
3 7 1 18
3 18 4 3
3 6 4 18
3 18 3 7
3 11 7 3
3 18 0 6
3 19 5 6
3 5 12 3
3 3 12 11
3 13 8 11
3 11 8 7
3 15 0 9
3 15 6 0
3 20 6 15
3 12 5 10
3 10 5 19
3 1 8 2
3 20 15 16
3 6 20 19
3 10 19 17
3 17 19 16
3 16 19 20
3 17 14 13
